<svg xmlns="http://www.w3.org/2000/svg" width="144" height="144" fill="none" viewBox="0 0 144 144"><path fill="#E24329" d="M72.0051 139.83L45.4766 58.2295H98.4948L72.0051 139.83Z"/><path fill="#FCA326" d="M135.652 58.2299L143.731 83.0213C144.462 85.2724 143.672 87.7572 141.743 89.1604L72.0047 139.83L135.652 58.2299Z"/><path fill="#E24329" d="M135.652 58.2299H98.4949L114.486 9.08573C115.305 6.57145 118.872 6.57145 119.72 9.08573L135.652 58.2299Z"/><path fill="#FCA326" d="M8.31877 58.2299L0.269259 83.0213C-0.461779 85.2724 0.327682 87.7572 2.25721 89.1604L72.0052 139.83L8.31877 58.2299Z"/><path fill="#E24329" d="M8.31854 58.2299H45.4761L29.5139 9.08573C28.6955 6.57145 25.1286 6.57145 24.2807 9.08573L8.31854 58.2299Z"/><path fill="#FC6D26" d="M72.0052 139.83L45.4767 58.2299H8.31878L72.0052 139.83Z"/><path fill="#FC6D26" d="M72.0052 139.83L135.652 58.2299H98.4949L72.0052 139.83Z"/></svg>