<svg xmlns="http://www.w3.org/2000/svg" xmlns:xlink="http://www.w3.org/1999/xlink" width="1217" height="658" contentScriptType="application/ecmascript" contentStyleType="text/css" preserveAspectRatio="none" style="width:1217px;height:658px;background:#fff" version="1.1" viewBox="0 0 1217 658" zoomAndPan="magnify"><g><line style="stroke:#181818;stroke-width:.5;stroke-dasharray:5,5" x1="88" x2="88" y1="81.297" y2="577.289"/><line style="stroke:#181818;stroke-width:.5;stroke-dasharray:5,5" x1="412" x2="412" y1="81.297" y2="577.289"/><line style="stroke:#181818;stroke-width:.5;stroke-dasharray:5,5" x1="813" x2="813" y1="81.297" y2="577.289"/><line style="stroke:#181818;stroke-width:.5;stroke-dasharray:5,5" x1="1106.5" x2="1106.5" y1="81.297" y2="577.289"/><text x="5" y="77.995" fill="#000" font-family="sans-serif" font-size="14" lengthAdjust="spacing" textLength="161">Resource Owner (User)</text><ellipse cx="88.5" cy="13.5" fill="#E3E3E3" rx="8" ry="8" style="stroke:#181818;stroke-width:.5"/><path fill="none" d="M88.5,21.5 L88.5,48.5 M75.5,29.5 L101.5,29.5 M88.5,48.5 L75.5,63.5 M88.5,48.5 L101.5,63.5" style="stroke:#181818;stroke-width:.5"/><text x="5" y="589.284" fill="#000" font-family="sans-serif" font-size="14" lengthAdjust="spacing" textLength="161">Resource Owner (User)</text><ellipse cx="88.5" cy="601.086" fill="#E3E3E3" rx="8" ry="8" style="stroke:#181818;stroke-width:.5"/><path fill="none" d="M88.5,609.0859 L88.5,636.0859 M75.5,617.0859 L101.5,617.0859 M88.5,636.0859 L75.5,651.0859 M88.5,636.0859 L101.5,651.0859" style="stroke:#181818;stroke-width:.5"/><rect width="99" height="30.297" x="363" y="50" fill="#E3E3E3" rx="2.5" ry="2.5" style="stroke:#181818;stroke-width:.5"/><text x="370" y="69.995" fill="#000" font-family="sans-serif" font-size="14" lengthAdjust="spacing" textLength="85">Client (SPA)</text><rect width="99" height="30.297" x="363" y="576.289" fill="#E3E3E3" rx="2.5" ry="2.5" style="stroke:#181818;stroke-width:.5"/><text x="370" y="596.284" fill="#000" font-family="sans-serif" font-size="14" lengthAdjust="spacing" textLength="85">Client (SPA)</text><rect width="109" height="30.297" x="759" y="50" fill="#E3E3E3" rx="2.5" ry="2.5" style="stroke:#181818;stroke-width:.5"/><text x="766" y="69.995" fill="#000" font-family="sans-serif" font-size="14" lengthAdjust="spacing" textLength="95">Auth JS (SDK)</text><rect width="109" height="30.297" x="759" y="576.289" fill="#E3E3E3" rx="2.5" ry="2.5" style="stroke:#181818;stroke-width:.5"/><text x="766" y="596.284" fill="#000" font-family="sans-serif" font-size="14" lengthAdjust="spacing" textLength="95">Auth JS (SDK)</text><rect width="210" height="30.297" x="1001.5" y="50" fill="#E3E3E3" rx="2.5" ry="2.5" style="stroke:#181818;stroke-width:.5"/><text x="1008.5" y="69.995" fill="#000" font-family="sans-serif" font-size="14" lengthAdjust="spacing" textLength="196">Authorization server (Okta)</text><rect width="210" height="30.297" x="1001.5" y="576.289" fill="#E3E3E3" rx="2.5" ry="2.5" style="stroke:#181818;stroke-width:.5"/><text x="1008.5" y="596.284" fill="#000" font-family="sans-serif" font-size="14" lengthAdjust="spacing" textLength="196">Authorization server (Okta)</text><polygon fill="#181818" points="400.5 108.43 410.5 112.43 400.5 116.43 404.5 112.43" style="stroke:#181818;stroke-width:1"/><line style="stroke:#181818;stroke-width:1" x1="88.5" x2="406.5" y1="112.43" y2="112.43"/><text x="95.5" y="107.364" fill="#000" font-family="sans-serif" font-size="13" font-weight="bold" lengthAdjust="spacing" textLength="14">1.</text><text x="113.5" y="107.364" fill="#000" font-family="sans-serif" font-size="13" lengthAdjust="spacing" textLength="184">Navigate to app sign-in page</text><line style="stroke:#181818;stroke-width:1" x1="412.5" x2="454.5" y1="141.563" y2="141.563"/><line style="stroke:#181818;stroke-width:1" x1="454.5" x2="454.5" y1="141.563" y2="154.563"/><line style="stroke:#181818;stroke-width:1" x1="413.5" x2="454.5" y1="154.563" y2="154.563"/><polygon fill="#181818" points="423.5 150.563 413.5 154.563 423.5 158.563 419.5 154.563" style="stroke:#181818;stroke-width:1"/><text x="419.5" y="136.497" fill="#000" font-family="sans-serif" font-size="13" font-weight="bold" lengthAdjust="spacing" textLength="14">2.</text><text x="437.5" y="136.497" fill="#000" font-family="sans-serif" font-size="13" lengthAdjust="spacing" textLength="279">Display sign-in page, instantiate OktaAuth()</text><polygon fill="#181818" points="400.5 179.695 410.5 183.695 400.5 187.695 404.5 183.695" style="stroke:#181818;stroke-width:1"/><line style="stroke:#181818;stroke-width:1" x1="88.5" x2="406.5" y1="183.695" y2="183.695"/><text x="95.5" y="178.629" fill="#000" font-family="sans-serif" font-size="13" font-weight="bold" lengthAdjust="spacing" textLength="13">3.</text><text x="112.5" y="178.629" fill="#000" font-family="sans-serif" font-size="13" lengthAdjust="spacing" textLength="108">Enter credentials</text><polygon fill="#181818" points="801.5 208.828 811.5 212.828 801.5 216.828 805.5 212.828" style="stroke:#181818;stroke-width:1"/><line style="stroke:#181818;stroke-width:1" x1="412.5" x2="807.5" y1="212.828" y2="212.828"/><text x="419.5" y="207.762" fill="#000" font-family="sans-serif" font-size="13" font-weight="bold" lengthAdjust="spacing" textLength="14">4.</text><text x="437.5" y="207.762" fill="#000" font-family="sans-serif" font-size="13" lengthAdjust="spacing" textLength="272">Call idx.authenticate(username,password)</text><polygon fill="#181818" points="1094.5 237.961 1104.5 241.961 1094.5 245.961 1098.5 241.961" style="stroke:#181818;stroke-width:1"/><line style="stroke:#181818;stroke-width:1" x1="813.5" x2="1100.5" y1="241.961" y2="241.961"/><text x="820.5" y="236.895" fill="#000" font-family="sans-serif" font-size="13" font-weight="bold" lengthAdjust="spacing" textLength="14">5.</text><text x="838.5" y="236.895" fill="#000" font-family="sans-serif" font-size="13" lengthAdjust="spacing" textLength="207">API request to authenticate user</text><polygon fill="#181818" points="824.5 267.094 814.5 271.094 824.5 275.094 820.5 271.094" style="stroke:#181818;stroke-width:1"/><line style="stroke:#181818;stroke-width:1" x1="818.5" x2="1105.5" y1="271.094" y2="271.094"/><text x="830.5" y="266.028" fill="#000" font-family="sans-serif" font-size="13" font-weight="bold" lengthAdjust="spacing" textLength="14">6.</text><text x="848.5" y="266.028" fill="#000" font-family="sans-serif" font-size="13" lengthAdjust="spacing" textLength="140">Return Auth response</text><polygon fill="#181818" points="423.5 296.227 413.5 300.227 423.5 304.227 419.5 300.227" style="stroke:#181818;stroke-width:1"/><line style="stroke:#181818;stroke-width:1" x1="417.5" x2="812.5" y1="300.227" y2="300.227"/><text x="429.5" y="295.161" fill="#000" font-family="sans-serif" font-size="13" font-weight="bold" lengthAdjust="spacing" textLength="14">7.</text><text x="447.5" y="295.161" fill="#000" font-family="sans-serif" font-size="13" lengthAdjust="spacing" textLength="245">Return tokens and idxStatus.SUCCESS</text><line style="stroke:#181818;stroke-width:1" x1="412.5" x2="454.5" y1="329.359" y2="329.359"/><line style="stroke:#181818;stroke-width:1" x1="454.5" x2="454.5" y1="329.359" y2="342.359"/><line style="stroke:#181818;stroke-width:1" x1="413.5" x2="454.5" y1="342.359" y2="342.359"/><polygon fill="#181818" points="423.5 338.359 413.5 342.359 423.5 346.359 419.5 342.359" style="stroke:#181818;stroke-width:1"/><text x="419.5" y="324.293" fill="#000" font-family="sans-serif" font-size="13" font-weight="bold" lengthAdjust="spacing" textLength="14">8.</text><text x="437.5" y="324.293" fill="#000" font-family="sans-serif" font-size="13" lengthAdjust="spacing" textLength="359">For idxStatus.SUCCESS, store tokens in browser storage</text><polygon fill="#181818" points="99.5 367.492 89.5 371.492 99.5 375.492 95.5 371.492" style="stroke:#181818;stroke-width:1"/><line style="stroke:#181818;stroke-width:1" x1="93.5" x2="411.5" y1="371.492" y2="371.492"/><text x="105.5" y="366.426" fill="#000" font-family="sans-serif" font-size="13" font-weight="bold" lengthAdjust="spacing" textLength="14">9.</text><text x="123.5" y="366.426" fill="#000" font-family="sans-serif" font-size="13" lengthAdjust="spacing" textLength="282">Direct user to authenticated protected page</text><line style="stroke:#181818;stroke-width:1" x1="412.5" x2="454.5" y1="400.625" y2="400.625"/><line style="stroke:#181818;stroke-width:1" x1="454.5" x2="454.5" y1="400.625" y2="413.625"/><line style="stroke:#181818;stroke-width:1" x1="413.5" x2="454.5" y1="413.625" y2="413.625"/><polygon fill="#181818" points="423.5 409.625 413.5 413.625 423.5 417.625 419.5 413.625" style="stroke:#181818;stroke-width:1"/><text x="419.5" y="395.559" fill="#000" font-family="sans-serif" font-size="13" font-weight="bold" lengthAdjust="spacing" textLength="24">10.</text><text x="447.5" y="395.559" fill="#000" font-family="sans-serif" font-size="13" lengthAdjust="spacing" textLength="359">For idxStatus.SUCCESS, store tokens in browser storage</text><polygon fill="#181818" points="801.5 438.758 811.5 442.758 801.5 446.758 805.5 442.758" style="stroke:#181818;stroke-width:1"/><line style="stroke:#181818;stroke-width:1" x1="412.5" x2="807.5" y1="442.758" y2="442.758"/><text x="419.5" y="437.692" fill="#000" font-family="sans-serif" font-size="13" font-weight="bold" lengthAdjust="spacing" textLength="23">11.</text><text x="446.5" y="437.692" fill="#000" font-family="sans-serif" font-size="13" lengthAdjust="spacing" textLength="320">(Optional) Call token.getUserInfo() to get user info</text><polygon fill="#181818" points="1094.5 467.891 1104.5 471.891 1094.5 475.891 1098.5 471.891" style="stroke:#181818;stroke-width:1"/><line style="stroke:#181818;stroke-width:1" x1="813.5" x2="1100.5" y1="471.891" y2="471.891"/><text x="820.5" y="466.825" fill="#000" font-family="sans-serif" font-size="13" font-weight="bold" lengthAdjust="spacing" textLength="23">12.</text><text x="847.5" y="466.825" fill="#000" font-family="sans-serif" font-size="13" lengthAdjust="spacing" textLength="242">(Optional) API request to get user info</text><polygon fill="#181818" points="824.5 497.023 814.5 501.023 824.5 505.023 820.5 501.023" style="stroke:#181818;stroke-width:1"/><line style="stroke:#181818;stroke-width:1" x1="818.5" x2="1105.5" y1="501.023" y2="501.023"/><text x="830.5" y="495.957" fill="#000" font-family="sans-serif" font-size="13" font-weight="bold" lengthAdjust="spacing" textLength="22">13.</text><text x="856.5" y="495.957" fill="#000" font-family="sans-serif" font-size="13" lengthAdjust="spacing" textLength="233">(Optional) Return user info response</text><polygon fill="#181818" points="423.5 526.156 413.5 530.156 423.5 534.156 419.5 530.156" style="stroke:#181818;stroke-width:1"/><line style="stroke:#181818;stroke-width:1" x1="417.5" x2="812.5" y1="530.156" y2="530.156"/><text x="429.5" y="525.09" fill="#000" font-family="sans-serif" font-size="13" font-weight="bold" lengthAdjust="spacing" textLength="23">14.</text><text x="456.5" y="525.09" fill="#000" font-family="sans-serif" font-size="13" lengthAdjust="spacing" textLength="170">(Optional) Return user info</text><polygon fill="#181818" points="99.5 555.289 89.5 559.289 99.5 563.289 95.5 559.289" style="stroke:#181818;stroke-width:1"/><line style="stroke:#181818;stroke-width:1" x1="93.5" x2="411.5" y1="559.289" y2="559.289"/><text x="105.5" y="554.223" fill="#000" font-family="sans-serif" font-size="13" font-weight="bold" lengthAdjust="spacing" textLength="23">15.</text><text x="132.5" y="554.223" fill="#000" font-family="sans-serif" font-size="13" lengthAdjust="spacing" textLength="231">(Optional) Display required user info</text></g></svg>